<svg width="126" height="40" viewBox="0 0 126 40" fill="none" xmlns="http://www.w3.org/2000/svg">
<path d="M60.968 14.4377V15.8457C62.216 15.8777 63.208 16.0964 63.944 16.5017C64.6907 16.8964 65.224 17.4084 65.544 18.0377C65.8747 18.6671 66.04 19.3551 66.04 20.1017C66.04 20.5817 65.9547 21.0724 65.784 21.5737C65.624 22.0751 65.3467 22.5391 64.952 22.9657C64.568 23.3817 64.0507 23.7231 63.4 23.9897C62.7493 24.2564 61.9387 24.4004 60.968 24.4217V26.1817H58.792V24.4217C57.8107 24.4004 56.9893 24.2564 56.328 23.9897C55.6773 23.7231 55.16 23.3764 54.776 22.9497C54.392 22.5231 54.12 22.0644 53.96 21.5737C53.8 21.0724 53.72 20.5817 53.72 20.1017C53.72 19.5471 53.8107 19.0191 53.992 18.5177C54.1733 18.0164 54.4613 17.5684 54.856 17.1737C55.2507 16.7791 55.7733 16.4644 56.424 16.2297C57.0747 15.9951 57.864 15.8671 58.792 15.8457V14.4377H60.968ZM58.792 17.7337C58.0987 17.7657 57.544 17.8884 57.128 18.1017C56.7227 18.3044 56.4293 18.5764 56.248 18.9177C56.0773 19.2591 55.992 19.6484 55.992 20.0857C55.992 20.5657 56.088 20.9871 56.28 21.3497C56.4827 21.7017 56.7867 21.9844 57.192 22.1977C57.608 22.4004 58.1413 22.5177 58.792 22.5497V17.7337ZM60.968 22.5497C61.6187 22.5177 62.1467 22.4004 62.552 22.1977C62.968 21.9844 63.272 21.7017 63.464 21.3497C63.6667 20.9871 63.768 20.5657 63.768 20.0857C63.768 19.6484 63.6773 19.2591 63.496 18.9177C63.3253 18.5764 63.032 18.3044 62.616 18.1017C62.2107 17.8884 61.6613 17.7657 60.968 17.7337V22.5497ZM68.2056 14.5977H70.3816V20.1177C70.3816 20.3844 70.3763 20.6831 70.3656 21.0137C70.355 21.3444 70.3443 21.6697 70.3336 21.9897C70.323 22.2991 70.3123 22.5711 70.3016 22.8057C70.291 23.0297 70.2803 23.1844 70.2696 23.2697H70.3176L75.5976 14.5977H78.4936V26.0217H76.3336V20.5337C76.3336 20.2457 76.339 19.9311 76.3496 19.5897C76.3603 19.2377 76.371 18.9017 76.3816 18.5817C76.403 18.2617 76.419 17.9844 76.4296 17.7497C76.451 17.5044 76.467 17.3444 76.4776 17.2697H76.4136L71.1176 26.0217H68.2056V14.5977ZM90.7375 26.0217H88.3215V21.0937H83.7935V26.0217H81.3775V14.5977H83.7935V19.0777H88.3215V14.5977H90.7375V26.0217ZM100.604 26.0217L99.7719 23.3017H95.6119L94.7799 26.0217H92.1719L96.2039 14.5497H99.1639L103.212 26.0217H100.604ZM98.3639 18.6137C98.3105 18.4324 98.2412 18.2031 98.1559 17.9257C98.0705 17.6484 97.9852 17.3657 97.8999 17.0777C97.8145 16.7897 97.7452 16.5391 97.6919 16.3257C97.6385 16.5391 97.5639 16.8057 97.4679 17.1257C97.3825 17.4351 97.2972 17.7337 97.2119 18.0217C97.1372 18.2991 97.0785 18.4964 97.0359 18.6137L96.2199 21.2697H99.1959L98.3639 18.6137ZM114.019 26.0217H111.603V21.0937H107.075V26.0217H104.659V14.5977H107.075V19.0777H111.603V14.5977H114.019V26.0217ZM121.741 16.4537C121.282 16.4537 120.872 16.5444 120.509 16.7257C120.157 16.9071 119.858 17.1684 119.613 17.5097C119.368 17.8404 119.181 18.2457 119.053 18.7257C118.936 19.2057 118.877 19.7444 118.877 20.3417C118.877 21.1524 118.973 21.8457 119.165 22.4217C119.368 22.9871 119.682 23.4191 120.109 23.7177C120.536 24.0164 121.08 24.1657 121.741 24.1657C122.21 24.1657 122.674 24.1124 123.133 24.0057C123.602 23.8991 124.109 23.7497 124.653 23.5577V25.5897C124.152 25.7924 123.656 25.9417 123.165 26.0377C122.674 26.1337 122.125 26.1817 121.517 26.1817C120.344 26.1817 119.373 25.9417 118.605 25.4617C117.848 24.9711 117.288 24.2884 116.925 23.4137C116.562 22.5284 116.381 21.4991 116.381 20.3257C116.381 19.4617 116.498 18.6724 116.733 17.9577C116.968 17.2324 117.309 16.6084 117.757 16.0857C118.216 15.5631 118.776 15.1577 119.437 14.8697C120.109 14.5817 120.877 14.4377 121.741 14.4377C122.306 14.4377 122.872 14.5124 123.437 14.6617C124.013 14.8004 124.562 14.9924 125.085 15.2377L124.301 17.2057C123.874 17.0031 123.442 16.8271 123.005 16.6777C122.578 16.5284 122.157 16.4537 121.741 16.4537Z" fill="white"/>
<path d="M0 0H40.0001V20.1171C40.0001 25.2743 37.2489 30.0398 32.7829 32.6186L20 40L7.21719 32.6186C2.75113 30.0398 0 25.2743 0 20.1171V0Z" fill="#FFDD2D"/>
<path fill-rule="evenodd" clip-rule="evenodd" d="M10.9783 10.5892V16.846C11.8339 15.8798 13.3895 15.2259 15.1682 15.2259H17.1011V22.4995C17.1011 24.4346 16.5753 26.1283 15.7952 27.06H24.2029C23.4244 26.1274 22.8998 24.4358 22.8998 22.5031V15.2259H24.8328C26.6115 15.2259 28.1671 15.8798 29.0227 16.846V10.5892H10.9783Z" fill="#333333"/>
</svg>
