<svg width="331" height="120" viewBox="0 0 331 120" fill="none" xmlns="http://www.w3.org/2000/svg">
<path d="M158.92 41.04V44.56C162.04 44.64 164.52 45.1867 166.36 46.2C168.227 47.1867 169.56 48.4667 170.36 50.04C171.187 51.6133 171.6 53.3333 171.6 55.2C171.6 56.4 171.387 57.6267 170.96 58.88C170.56 60.1333 169.867 61.2933 168.88 62.36C167.92 63.4 166.627 64.2533 165 64.92C163.373 65.5867 161.347 65.9467 158.92 66V70.4H153.48V66C151.027 65.9467 148.973 65.5867 147.32 64.92C145.693 64.2533 144.4 63.3867 143.44 62.32C142.48 61.2533 141.8 60.1067 141.4 58.88C141 57.6267 140.8 56.4 140.8 55.2C140.8 53.8133 141.027 52.4933 141.48 51.24C141.933 49.9867 142.653 48.8667 143.64 47.88C144.627 46.8933 145.933 46.1067 147.56 45.52C149.187 44.9333 151.16 44.6133 153.48 44.56V41.04H158.92ZM153.48 49.28C151.747 49.36 150.36 49.6667 149.32 50.2C148.307 50.7067 147.573 51.3867 147.12 52.24C146.693 53.0933 146.48 54.0667 146.48 55.16C146.48 56.36 146.72 57.4133 147.2 58.32C147.707 59.2 148.467 59.9067 149.48 60.44C150.52 60.9467 151.853 61.24 153.48 61.32V49.28ZM158.92 61.32C160.547 61.24 161.867 60.9467 162.88 60.44C163.92 59.9067 164.68 59.2 165.16 58.32C165.667 57.4133 165.92 56.36 165.92 55.16C165.92 54.0667 165.693 53.0933 165.24 52.24C164.813 51.3867 164.08 50.7067 163.04 50.2C162.027 49.6667 160.653 49.36 158.92 49.28V61.32ZM177.014 41.44H182.454V55.24C182.454 55.9067 182.441 56.6533 182.414 57.48C182.387 58.3067 182.361 59.12 182.334 59.92C182.307 60.6933 182.281 61.3733 182.254 61.96C182.227 62.52 182.201 62.9067 182.174 63.12H182.294L195.494 41.44H202.734V70H197.334V56.28C197.334 55.56 197.347 54.7733 197.374 53.92C197.401 53.04 197.427 52.2 197.454 51.4C197.507 50.6 197.547 49.9067 197.574 49.32C197.627 48.7067 197.667 48.3067 197.694 48.12H197.534L184.294 70H177.014V41.44ZM233.344 70H227.304V57.68H215.984V70H209.944V41.44H215.984V52.64H227.304V41.44H233.344V70ZM258.01 70L255.93 63.2H245.53L243.45 70H236.93L247.01 41.32H254.41L264.53 70H258.01ZM252.41 51.48C252.276 51.0267 252.103 50.4533 251.89 49.76C251.676 49.0667 251.463 48.36 251.25 47.64C251.036 46.92 250.863 46.2933 250.73 45.76C250.596 46.2933 250.41 46.96 250.17 47.76C249.956 48.5333 249.743 49.28 249.53 50C249.343 50.6933 249.196 51.1867 249.09 51.48L247.05 58.12H254.49L252.41 51.48ZM291.547 70H285.507V57.68H274.187V70H268.147V41.44H274.187V52.64H285.507V41.44H291.547V70ZM310.853 46.08C309.706 46.08 308.679 46.3067 307.773 46.76C306.893 47.2133 306.146 47.8667 305.533 48.72C304.919 49.5467 304.453 50.56 304.133 51.76C303.839 52.96 303.693 54.3067 303.693 55.8C303.693 57.8267 303.933 59.56 304.413 61C304.919 62.4133 305.706 63.4933 306.773 64.24C307.839 64.9867 309.199 65.36 310.853 65.36C312.026 65.36 313.186 65.2267 314.333 64.96C315.506 64.6933 316.773 64.32 318.133 63.84V68.92C316.879 69.4267 315.639 69.8 314.413 70.04C313.186 70.28 311.813 70.4 310.293 70.4C307.359 70.4 304.933 69.8 303.013 68.6C301.119 67.3733 299.719 65.6667 298.813 63.48C297.906 61.2667 297.453 58.6933 297.453 55.76C297.453 53.6 297.746 51.6267 298.333 49.84C298.919 48.0267 299.773 46.4667 300.893 45.16C302.039 43.8533 303.439 42.84 305.093 42.12C306.773 41.4 308.693 41.04 310.853 41.04C312.266 41.04 313.679 41.2267 315.093 41.6C316.533 41.9467 317.906 42.4267 319.213 43.04L317.253 47.96C316.186 47.4533 315.106 47.0133 314.013 46.64C312.946 46.2667 311.893 46.08 310.853 46.08Z" fill="#333333"/>
<path d="M0 0H120V60.3513C120 75.8227 111.747 90.1194 98.3487 97.8559L60.0001 120L21.6516 97.8559C8.2534 90.1194 0 75.8227 0 60.3513V0Z" fill="#FFDD2D"/>
<path fill-rule="evenodd" clip-rule="evenodd" d="M32.9346 31.7676V50.5381C35.5014 47.6396 40.1682 45.6779 45.5042 45.6779H51.3029V67.4984C51.3029 73.3037 49.7256 78.385 47.3853 81.1799H72.6084C70.273 78.3822 68.6993 73.3073 68.6993 67.5095V45.6779H74.4983C79.8343 45.6779 84.501 47.6396 87.0679 50.5381V31.7676H32.9346Z" fill="#333333"/>
</svg>
