<svg width="50" height="51" viewBox="0 0 50 51" fill="none" xmlns="http://www.w3.org/2000/svg">
<path fill-rule="evenodd" clip-rule="evenodd" d="M20.4653 12.5768L31.7413 17.65C35.1691 19.1921 37.8667 20.4058 39.6968 21.5551C41.5043 22.6903 42.9168 24.0363 42.9168 25.9893C42.9168 27.9423 41.5043 29.2882 39.6968 30.4234C37.8667 31.5728 35.1691 32.7864 31.7414 34.3286L20.4653 39.4018C18.3703 40.3444 16.7405 41.0777 15.4678 41.5535C14.2225 42.0192 13.1095 42.3251 12.1199 42.2174C9.71954 41.9564 7.65405 40.3104 7.15415 37.9866C6.94228 37.0017 7.23854 35.8999 7.66419 34.7553C8.10491 33.5702 8.80538 32.0486 9.69776 30.1101L9.72182 30.0578C10.4193 28.5428 10.6877 27.945 10.8246 27.3486C11.0306 26.4514 11.0306 25.5272 10.8246 24.63C10.6877 24.0336 10.4193 23.4358 9.72182 21.9207L9.69776 21.8684C8.80538 19.9299 8.10491 18.4083 7.66419 17.2232C7.23854 16.0787 6.94228 14.9769 7.15415 13.992C7.65405 11.6681 9.71954 10.0221 12.1199 9.76111C13.1095 9.65349 14.2225 9.95932 15.4678 10.425C16.7405 10.9009 18.3703 11.6342 20.4653 12.5768ZM14.5922 12.7666C13.3686 12.3091 12.7435 12.208 12.3902 12.2465C10.9101 12.4074 9.84116 13.3885 9.59824 14.5177C9.55304 14.7278 9.5846 15.2149 10.0074 16.3518C10.4112 17.4376 11.0712 18.8733 11.9928 20.8753C12.0129 20.9192 12.0329 20.9625 12.0526 21.0053C12.671 22.3481 13.0594 23.1916 13.2612 24.0705C13.5518 25.3359 13.5518 26.6427 13.2612 27.9081C13.0594 28.7869 12.671 29.6304 12.0526 30.9732C12.0329 31.0161 12.0129 31.0594 11.9928 31.1033C11.0712 33.1052 10.4112 34.541 10.0074 35.6267C9.5846 36.7636 9.55304 37.2507 9.59824 37.4608C9.84116 38.59 10.9101 39.5711 12.3902 39.7321C12.7435 39.7705 13.3686 39.6695 14.5922 39.2119C15.7794 38.768 17.3351 38.0687 19.4847 37.1016L30.6145 32.0942C34.165 30.4968 36.702 29.3521 38.3671 28.3063C40.0727 27.2352 40.4168 26.5393 40.4168 25.9893C40.4168 25.4392 40.0727 24.7434 38.3671 23.6722C36.702 22.6265 34.165 21.4818 30.6145 19.8844L19.4847 14.877C17.3351 13.9098 15.7794 13.2106 14.5922 12.7666Z" fill="#02040F"/>
</svg>
